<svg width="49" height="10" viewBox="0 0 49 10" fill="none" xmlns="http://www.w3.org/2000/svg">
<g clip-path="url(#clip0_407_2)">
<path d="M4.03516 9H2.68164C2.64648 9 2.62891 8.98047 2.62891 8.94141V2.09766H1.07031C1.03125 2.09766 1.01172 2.07812 1.01172 2.03906L1.02344 0.697266C1.02344 0.666016 1.03906 0.650391 1.07031 0.650391H5.62891C5.67188 0.650391 5.69336 0.666016 5.69336 0.697266V2.03906C5.69336 2.07812 5.67773 2.09766 5.64648 2.09766H4.07031L4.08203 8.94141C4.08203 8.98047 4.06641 9 4.03516 9ZM9.8418 9H5.96289C5.93164 9 5.91602 8.98047 5.91602 8.94141L5.92773 0.697266C5.92773 0.666016 5.94336 0.650391 5.97461 0.650391H9.83008C9.86133 0.650391 9.87695 0.669922 9.87695 0.708984V2.05078C9.87695 2.08203 9.86133 2.09766 9.83008 2.09766H7.36914V3.97266H9.83008C9.86133 3.97266 9.87695 3.98828 9.87695 4.01953L9.88867 5.37891C9.88867 5.41016 9.87305 5.42578 9.8418 5.42578H7.36914V7.52344H9.8418C9.87305 7.52344 9.88867 7.54297 9.88867 7.58203V8.95312C9.88867 8.98438 9.87305 9 9.8418 9ZM13.1641 9.11719C12.7305 9.11719 12.334 9.00781 11.9746 8.78906C11.6191 8.57031 11.3359 8.27734 11.125 7.91016C10.918 7.53906 10.8145 7.12695 10.8145 6.67383L10.8262 2.92969C10.8262 2.48438 10.9277 2.08203 11.1309 1.72266C11.334 1.35938 11.6133 1.06836 11.9688 0.849609C12.3281 0.626953 12.7266 0.515625 13.1641 0.515625C13.6094 0.515625 14.0059 0.623047 14.3535 0.837891C14.7051 1.05273 14.9844 1.34375 15.1914 1.71094C15.4023 2.07422 15.5078 2.48047 15.5078 2.92969V3.48047C15.5078 3.51172 15.4922 3.52734 15.4609 3.52734H14.1133C14.082 3.52734 14.0664 3.51172 14.0664 3.48047V2.92969C14.0664 2.66406 13.9805 2.43555 13.8086 2.24414C13.6367 2.05273 13.4219 1.95703 13.1641 1.95703C12.8789 1.95703 12.6602 2.05469 12.5078 2.25C12.3555 2.44531 12.2793 2.67188 12.2793 2.92969V6.67383C12.2793 6.9668 12.3652 7.20703 12.5371 7.39453C12.709 7.57812 12.918 7.66992 13.1641 7.66992C13.4219 7.66992 13.6367 7.56836 13.8086 7.36523C13.9805 7.1582 14.0664 6.92773 14.0664 6.67383V6.11719C14.0664 6.08594 14.082 6.07031 14.1133 6.07031H15.4727C15.5039 6.07031 15.5195 6.08594 15.5195 6.11719V6.67383C15.5195 7.12305 15.4141 7.5332 15.2031 7.9043C14.9883 8.27148 14.7051 8.56641 14.3535 8.78906C14.002 9.00781 13.6055 9.11719 13.1641 9.11719ZM17.7988 9H16.4395C16.4082 9 16.3926 8.98047 16.3926 8.94141L16.4043 0.697266C16.4043 0.666016 16.4238 0.650391 16.4629 0.650391H17.7988C17.8379 0.650391 17.8574 0.666016 17.8574 0.697266L17.8457 3.96094H19.6445V0.697266C19.6445 0.666016 19.6602 0.650391 19.6914 0.650391H21.0273C21.0664 0.650391 21.0859 0.666016 21.0859 0.697266L21.1094 8.94141C21.1094 8.98047 21.0898 9 21.0508 9H19.7031C19.6641 9 19.6445 8.98047 19.6445 8.94141V5.41406H17.8457V8.94141C17.8457 8.98047 17.8301 9 17.7988 9Z" fill="#212121"/>
<path d="M23.8809 9H22.5215C22.4902 9 22.4746 8.98047 22.4746 8.94141L22.498 0.697266C22.498 0.666016 22.5137 0.650391 22.5449 0.650391H24.9707C25.4043 0.650391 25.8027 0.755859 26.166 0.966797C26.5293 1.17773 26.8184 1.46094 27.0332 1.81641C27.252 2.17188 27.3613 2.57422 27.3613 3.02344C27.3613 3.31641 27.3164 3.58203 27.2266 3.82031C27.1367 4.05859 27.0312 4.25977 26.9102 4.42383C26.793 4.58789 26.6855 4.70898 26.5879 4.78711C27.0215 5.26758 27.2383 5.83203 27.2383 6.48047L27.25 8.94141C27.25 8.98047 27.2305 9 27.1914 9H25.832C25.8008 9 25.7852 8.98828 25.7852 8.96484V6.48047C25.7852 6.19141 25.6836 5.94141 25.4805 5.73047C25.2773 5.51953 25.0273 5.41406 24.7305 5.41406H23.9395L23.9277 8.94141C23.9277 8.98047 23.9121 9 23.8809 9ZM24.9707 2.08594H23.9395V3.97266H24.9707C25.2168 3.97266 25.4355 3.88086 25.627 3.69727C25.8223 3.51367 25.9199 3.28906 25.9199 3.02344C25.9199 2.76953 25.8262 2.55078 25.6387 2.36719C25.4512 2.17969 25.2285 2.08594 24.9707 2.08594ZM30.5195 9H29.1426C29.1152 9 29.1016 8.98438 29.1016 8.95312L29.1133 5.54297L27.5078 0.697266C27.5 0.666016 27.5117 0.650391 27.543 0.650391H28.8789C28.918 0.650391 28.9414 0.666016 28.9492 0.697266L29.834 3.92578L30.7363 0.697266C30.7441 0.666016 30.7637 0.650391 30.7949 0.650391H32.1426C32.1738 0.650391 32.1855 0.666016 32.1777 0.697266L30.5547 5.49609L30.5664 8.95312C30.5664 8.98438 30.5508 9 30.5195 9ZM34.873 9.11719C34.4473 9.11719 34.0547 9.00781 33.6953 8.78906C33.3398 8.57031 33.0547 8.2793 32.8398 7.91602C32.6289 7.54883 32.5234 7.14648 32.5234 6.70898V6.1582C32.5234 6.11523 32.543 6.09375 32.582 6.09375H33.9297C33.9609 6.09375 33.9766 6.11523 33.9766 6.1582V6.70898C33.9766 6.9707 34.0645 7.19727 34.2402 7.38867C34.416 7.57617 34.627 7.66992 34.873 7.66992C35.123 7.66992 35.3359 7.57422 35.5117 7.38281C35.6875 7.1875 35.7754 6.96289 35.7754 6.70898C35.7754 6.41602 35.584 6.16016 35.2012 5.94141C35.1387 5.90234 35.0566 5.85547 34.9551 5.80078C34.8574 5.74219 34.7402 5.67578 34.6035 5.60156C34.4668 5.52734 34.334 5.45508 34.2051 5.38477C34.0762 5.31055 33.9512 5.24023 33.8301 5.17383C33.3926 4.91602 33.0664 4.59375 32.8516 4.20703C32.6406 3.81641 32.5352 3.37891 32.5352 2.89453C32.5352 2.44922 32.6445 2.04688 32.8633 1.6875C33.082 1.33203 33.3672 1.05078 33.7188 0.84375C34.0742 0.632812 34.459 0.527344 34.873 0.527344C35.2988 0.527344 35.6895 0.632812 36.0449 0.84375C36.4004 1.05859 36.6836 1.34375 36.8945 1.69922C37.1094 2.05469 37.2168 2.45312 37.2168 2.89453V3.87891C37.2168 3.91016 37.2012 3.92578 37.1699 3.92578H35.8223C35.791 3.92578 35.7754 3.91016 35.7754 3.87891L35.7637 2.89453C35.7637 2.61328 35.6758 2.38477 35.5 2.20898C35.3242 2.0332 35.1152 1.94531 34.873 1.94531C34.627 1.94531 34.416 2.03906 34.2402 2.22656C34.0645 2.41406 33.9766 2.63672 33.9766 2.89453C33.9766 3.15625 34.0312 3.375 34.1406 3.55078C34.2539 3.72656 34.459 3.89453 34.7559 4.05469C34.7871 4.07031 34.8594 4.10938 34.9727 4.17188C35.0859 4.23438 35.2109 4.30469 35.3477 4.38281C35.4883 4.45703 35.6152 4.52539 35.7285 4.58789C35.8418 4.64648 35.9102 4.68164 35.9336 4.69336C36.332 4.91602 36.6465 5.18945 36.877 5.51367C37.1113 5.83789 37.2285 6.23633 37.2285 6.70898C37.2285 7.16602 37.123 7.57617 36.9121 7.93945C36.6973 8.30273 36.4121 8.58984 36.0566 8.80078C35.7012 9.01172 35.3066 9.11719 34.873 9.11719ZM41.9863 9H38.1074C38.0762 9 38.0605 8.98047 38.0605 8.94141L38.0723 0.697266C38.0723 0.666016 38.0879 0.650391 38.1191 0.650391H41.9746C42.0059 0.650391 42.0215 0.669922 42.0215 0.708984V2.05078C42.0215 2.08203 42.0059 2.09766 41.9746 2.09766H39.5137V3.97266H41.9746C42.0059 3.97266 42.0215 3.98828 42.0215 4.01953L42.0332 5.37891C42.0332 5.41016 42.0176 5.42578 41.9863 5.42578H39.5137V7.52344H41.9863C42.0176 7.52344 42.0332 7.54297 42.0332 7.58203V8.95312C42.0332 8.98438 42.0176 9 41.9863 9ZM44.4062 9H43.2051C43.1426 9 43.1113 8.97266 43.1113 8.91797L43.0996 0.744141C43.0996 0.681641 43.1309 0.650391 43.1934 0.650391H44.2773L46.3047 5.37891L46.2461 0.744141C46.2461 0.681641 46.2812 0.650391 46.3516 0.650391H47.541C47.5879 0.650391 47.6113 0.681641 47.6113 0.744141L47.623 8.92969C47.623 8.97656 47.6035 9 47.5645 9H46.5098L44.4297 4.58203L44.5176 8.90625C44.5176 8.96875 44.4805 9 44.4062 9Z" fill="#17A3B8"/>
</g>
<defs>
<clipPath id="clip0_407_2">
<rect width="49" height="10" fill="white"/>
</clipPath>
</defs>
</svg>
